<?xml version="1.0" encoding="us-ascii" standalone="no"?><svg xmlns="http://www.w3.org/2000/svg" xmlns:xlink="http://www.w3.org/1999/xlink" contentStyleType="text/css" height="1565px" preserveAspectRatio="none" style="width:1466px;height:1565px;background:#FFFFFF;" version="1.1" viewBox="0 0 1466 1565" width="1466px" zoomAndPan="magnify"><defs/><g><text fill="#000000" font-family="Verdana" font-size="22" font-weight="bold" lengthAdjust="spacing" textLength="437" x="513.25" y="37.1182">Trade Store - Processing Sequence</text><rect fill="#FFFFFF" height="211.9639" style="stroke:#000000;stroke-width:1.0;" width="727" x="489.5" y="676.7417"/><rect fill="#FFFFFF" height="104.7666" style="stroke:none;stroke-width:1.0;" width="727" x="489.5" y="783.939"/><rect fill="#FFFFFF" height="313.9932" style="stroke:#000000;stroke-width:1.0;" width="642.5" x="807" y="1198.8994"/><rect fill="#FFFFFF" height="179.7959" style="stroke:#000000;stroke-width:1.0;" width="622.5" x="817" y="1326.0967"/><line style="stroke:#000000;stroke-width:1.0;" x1="46" x2="46" y1="84.752" y2="1529.8926"/><line style="stroke:#000000;stroke-width:1.0;" x1="251.5" x2="251.5" y1="84.752" y2="1529.8926"/><line style="stroke:#000000;stroke-width:1.0;" x1="425.5" x2="425.5" y1="84.752" y2="1529.8926"/><line style="stroke:#000000;stroke-width:1.0;" x1="594.5" x2="594.5" y1="84.752" y2="1529.8926"/><line style="stroke:#000000;stroke-width:1.0;" x1="760" x2="760" y1="84.752" y2="1529.8926"/><line style="stroke:#000000;stroke-width:1.0;" x1="928" x2="928" y1="84.752" y2="1529.8926"/><line style="stroke:#000000;stroke-width:1.0;" x1="1147.5" x2="1147.5" y1="84.752" y2="1529.8926"/><line style="stroke:#000000;stroke-width:1.0;" x1="1287.5" x2="1287.5" y1="84.752" y2="1529.8926"/><rect fill="#FFFFFF" height="31.0146" rx="2.5" ry="2.5" style="stroke:#000000;stroke-width:1.0;" width="53" x="20" y="52.7373"/><text fill="#000000" font-family="Verdana" font-size="14" lengthAdjust="spacing" textLength="39" x="27" y="73.8125">Client</text><rect fill="#FFFFFF" height="31.0146" rx="2.5" ry="2.5" style="stroke:#000000;stroke-width:1.0;" width="53" x="20" y="1528.8926"/><text fill="#000000" font-family="Verdana" font-size="14" lengthAdjust="spacing" textLength="39" x="27" y="1549.9678">Client</text><rect fill="#FFFFFF" height="31.0146" rx="2.5" ry="2.5" style="stroke:#000000;stroke-width:1.0;" width="180" x="161.5" y="52.7373"/><text fill="#000000" font-family="Verdana" font-size="14" lengthAdjust="spacing" textLength="166" x="168.5" y="73.8125">Trade Ingestion Service</text><rect fill="#FFFFFF" height="31.0146" rx="2.5" ry="2.5" style="stroke:#000000;stroke-width:1.0;" width="180" x="161.5" y="1528.8926"/><text fill="#000000" font-family="Verdana" font-size="14" lengthAdjust="spacing" textLength="166" x="168.5" y="1549.9678">Trade Ingestion Service</text><rect fill="#FFFFFF" height="31.0146" rx="2.5" ry="2.5" style="stroke:#000000;stroke-width:1.0;" width="108" x="371.5" y="52.7373"/><text fill="#000000" font-family="Verdana" font-size="14" lengthAdjust="spacing" textLength="94" x="378.5" y="73.8125">Kafka Cluster</text><rect fill="#FFFFFF" height="31.0146" rx="2.5" ry="2.5" style="stroke:#000000;stroke-width:1.0;" width="108" x="371.5" y="1528.8926"/><text fill="#000000" font-family="Verdana" font-size="14" lengthAdjust="spacing" textLength="94" x="378.5" y="1549.9678">Kafka Cluster</text><rect fill="#FFFFFF" height="31.0146" rx="2.5" ry="2.5" style="stroke:#000000;stroke-width:1.0;" width="170" x="509.5" y="52.7373"/><text fill="#000000" font-family="Verdana" font-size="14" lengthAdjust="spacing" textLength="156" x="516.5" y="73.8125">Trade Capture Service</text><rect fill="#FFFFFF" height="31.0146" rx="2.5" ry="2.5" style="stroke:#000000;stroke-width:1.0;" width="170" x="509.5" y="1528.8926"/><text fill="#000000" font-family="Verdana" font-size="14" lengthAdjust="spacing" textLength="156" x="516.5" y="1549.9678">Trade Capture Service</text><rect fill="#FFFFFF" height="31.0146" rx="2.5" ry="2.5" style="stroke:#000000;stroke-width:1.0;" width="93" x="714" y="52.7373"/><text fill="#000000" font-family="Verdana" font-size="14" lengthAdjust="spacing" textLength="79" x="721" y="73.8125">DynamoDB</text><rect fill="#FFFFFF" height="31.0146" rx="2.5" ry="2.5" style="stroke:#000000;stroke-width:1.0;" width="93" x="714" y="1528.8926"/><text fill="#000000" font-family="Verdana" font-size="14" lengthAdjust="spacing" textLength="79" x="721" y="1549.9678">DynamoDB</text><rect fill="#FFFFFF" height="31.0146" rx="2.5" ry="2.5" style="stroke:#000000;stroke-width:1.0;" width="182" x="837" y="52.7373"/><text fill="#000000" font-family="Verdana" font-size="14" lengthAdjust="spacing" textLength="168" x="844" y="73.8125">Trade Validation Service</text><rect fill="#FFFFFF" height="31.0146" rx="2.5" ry="2.5" style="stroke:#000000;stroke-width:1.0;" width="182" x="837" y="1528.8926"/><text fill="#000000" font-family="Verdana" font-size="14" lengthAdjust="spacing" textLength="168" x="844" y="1549.9678">Trade Validation Service</text><rect fill="#FFFFFF" height="31.0146" rx="2.5" ry="2.5" style="stroke:#000000;stroke-width:1.0;" width="97" x="1099.5" y="52.7373"/><text fill="#000000" font-family="Verdana" font-size="14" lengthAdjust="spacing" textLength="83" x="1106.5" y="73.8125">PostgreSQL</text><rect fill="#FFFFFF" height="31.0146" rx="2.5" ry="2.5" style="stroke:#000000;stroke-width:1.0;" width="97" x="1099.5" y="1528.8926"/><text fill="#000000" font-family="Verdana" font-size="14" lengthAdjust="spacing" textLength="83" x="1106.5" y="1549.9678">PostgreSQL</text><rect fill="#FFFFFF" height="31.0146" rx="2.5" ry="2.5" style="stroke:#000000;stroke-width:1.0;" width="122" x="1226.5" y="52.7373"/><text fill="#000000" font-family="Verdana" font-size="14" lengthAdjust="spacing" textLength="108" x="1233.5" y="73.8125">Trade Common</text><rect fill="#FFFFFF" height="31.0146" rx="2.5" ry="2.5" style="stroke:#000000;stroke-width:1.0;" width="122" x="1226.5" y="1528.8926"/><text fill="#000000" font-family="Verdana" font-size="14" lengthAdjust="spacing" textLength="108" x="1233.5" y="1549.9678">Trade Common</text><rect fill="#FFFFFF" height="3" style="stroke:#FFFFFF;stroke-width:1.0;" width="1454.5" x="5" y="115.6516"/><line style="stroke:#000000;stroke-width:0.5;" x1="5" x2="1459.5" y1="115.6516" y2="115.6516"/><line style="stroke:#000000;stroke-width:0.5;" x1="5" x2="1459.5" y1="118.6516" y2="118.6516"/><rect fill="#FFFFFF" height="23.7993" style="stroke:#000000;stroke-width:1.0;" width="180" x="642.25" y="104.752"/><text fill="#000000" font-family="Verdana" font-size="13" font-weight="bold" lengthAdjust="spacing" textLength="162" x="648.25" y="121.8218">Trade Processing Flow</text><polygon fill="#000000" points="239.5,159.3506,249.5,163.3506,239.5,167.3506,243.5,163.3506" style="stroke:#000000;stroke-width:1.0;"/><line style="stroke:#000000;stroke-width:1.0;" x1="46.5" x2="245.5" y1="163.3506" y2="163.3506"/><text fill="#000000" font-family="Verdana" font-size="13" lengthAdjust="spacing" textLength="114" x="53.5" y="158.6211">POST /api/trades</text><path d="M256,143.5513 L256,168.5513 L487,168.5513 L487,153.5513 L477,143.5513 L256,143.5513 " fill="#FFFFFF" style="stroke:#000000;stroke-width:1.0;"/><path d="M477,143.5513 L477,153.5513 L487,153.5513 L477,143.5513 " fill="#FFFFFF" style="stroke:#000000;stroke-width:1.0;"/><text fill="#000000" font-family="Verdana" font-size="13" lengthAdjust="spacing" textLength="210" x="262" y="161.6211">Trade data with validation rules</text><line style="stroke:#000000;stroke-width:1.0;" x1="251.5" x2="293.5" y1="196.1499" y2="196.1499"/><line style="stroke:#000000;stroke-width:1.0;" x1="293.5" x2="293.5" y1="196.1499" y2="209.1499"/><line style="stroke:#000000;stroke-width:1.0;" x1="252.5" x2="293.5" y1="209.1499" y2="209.1499"/><polygon fill="#000000" points="262.5,205.1499,252.5,209.1499,262.5,213.1499,258.5,209.1499" style="stroke:#000000;stroke-width:1.0;"/><text fill="#000000" font-family="Verdana" font-size="13" lengthAdjust="spacing" textLength="132" x="258.5" y="191.4204">Validate Trade Data</text><line style="stroke:#000000;stroke-width:1.0;" x1="251.5" x2="293.5" y1="238.9492" y2="238.9492"/><line style="stroke:#000000;stroke-width:1.0;" x1="293.5" x2="293.5" y1="238.9492" y2="251.9492"/><line style="stroke:#000000;stroke-width:1.0;" x1="252.5" x2="293.5" y1="251.9492" y2="251.9492"/><polygon fill="#000000" points="262.5,247.9492,252.5,251.9492,262.5,255.9492,258.5,251.9492" style="stroke:#000000;stroke-width:1.0;"/><text fill="#000000" font-family="Verdana" font-size="13" lengthAdjust="spacing" textLength="137" x="258.5" y="234.2197">Generate Request ID</text><polygon fill="#000000" points="413.5,280.7485,423.5,284.7485,413.5,288.7485,417.5,284.7485" style="stroke:#000000;stroke-width:1.0;"/><line style="stroke:#000000;stroke-width:1.0;" x1="251.5" x2="419.5" y1="284.7485" y2="284.7485"/><text fill="#000000" font-family="Verdana" font-size="13" lengthAdjust="spacing" textLength="131" x="258.5" y="280.019">Publish Trade Event</text><path d="M430,264.9492 L430,289.9492 L597,289.9492 L597,274.9492 L587,264.9492 L430,264.9492 " fill="#FFFFFF" style="stroke:#000000;stroke-width:1.0;"/><path d="M587,264.9492 L587,274.9492 L597,274.9492 L587,264.9492 " fill="#FFFFFF" style="stroke:#000000;stroke-width:1.0;"/><text fill="#000000" font-family="Verdana" font-size="13" lengthAdjust="spacing" textLength="146" x="436" y="283.019">topic: trade_ingestion</text><polygon fill="#000000" points="582.5,316.5479,592.5,320.5479,582.5,324.5479,586.5,320.5479" style="stroke:#000000;stroke-width:1.0;"/><line style="stroke:#000000;stroke-width:1.0;" x1="425.5" x2="588.5" y1="320.5479" y2="320.5479"/><text fill="#000000" font-family="Verdana" font-size="13" lengthAdjust="spacing" textLength="145" x="432.5" y="315.8184">Consume Trade Event</text><path d="M599,300.7485 L599,325.7485 L721,325.7485 L721,310.7485 L711,300.7485 L599,300.7485 " fill="#FFFFFF" style="stroke:#000000;stroke-width:1.0;"/><path d="M711,300.7485 L711,310.7485 L721,310.7485 L711,300.7485 " fill="#FFFFFF" style="stroke:#000000;stroke-width:1.0;"/><text fill="#000000" font-family="Verdana" font-size="13" lengthAdjust="spacing" textLength="101" x="605" y="318.8184">@KafkaListener</text><line style="stroke:#000000;stroke-width:1.0;" x1="594.5" x2="636.5" y1="353.3472" y2="353.3472"/><line style="stroke:#000000;stroke-width:1.0;" x1="636.5" x2="636.5" y1="353.3472" y2="366.3472"/><line style="stroke:#000000;stroke-width:1.0;" x1="595.5" x2="636.5" y1="366.3472" y2="366.3472"/><polygon fill="#000000" points="605.5,362.3472,595.5,366.3472,605.5,370.3472,601.5,366.3472" style="stroke:#000000;stroke-width:1.0;"/><text fill="#000000" font-family="Verdana" font-size="13" lengthAdjust="spacing" textLength="152" x="601.5" y="348.6177">Convert to TradeModel</text><polygon fill="#000000" points="748.5,395.1465,758.5,399.1465,748.5,403.1465,752.5,399.1465" style="stroke:#000000;stroke-width:1.0;"/><line style="stroke:#000000;stroke-width:1.0;" x1="594.5" x2="754.5" y1="399.1465" y2="399.1465"/><text fill="#000000" font-family="Verdana" font-size="13" lengthAdjust="spacing" textLength="122" x="601.5" y="394.417">Store Trade Event</text><path d="M765,379.3472 L765,404.3472 L891,404.3472 L891,389.3472 L881,379.3472 L765,379.3472 " fill="#FFFFFF" style="stroke:#000000;stroke-width:1.0;"/><path d="M881,379.3472 L881,389.3472 L891,389.3472 L881,379.3472 " fill="#FFFFFF" style="stroke:#000000;stroke-width:1.0;"/><text fill="#000000" font-family="Verdana" font-size="13" lengthAdjust="spacing" textLength="105" x="771" y="397.417">PutItemRequest</text><polygon fill="#000000" points="605.5,427.9458,595.5,431.9458,605.5,435.9458,601.5,431.9458" style="stroke:#000000;stroke-width:1.0;"/><line style="stroke:#000000;stroke-width:1.0;stroke-dasharray:2.0,2.0;" x1="599.5" x2="759.5" y1="431.9458" y2="431.9458"/><text fill="#000000" font-family="Verdana" font-size="13" lengthAdjust="spacing" textLength="87" x="611.5" y="427.2163">Event Stored</text><polygon fill="#000000" points="916,460.7451,926,464.7451,916,468.7451,920,464.7451" style="stroke:#000000;stroke-width:1.0;"/><line style="stroke:#000000;stroke-width:1.0;" x1="594.5" x2="922" y1="464.7451" y2="464.7451"/><text fill="#000000" font-family="Verdana" font-size="13" lengthAdjust="spacing" textLength="167" x="601.5" y="460.0156">updateTradeProjectStore</text><path d="M933,444.9458 L933,469.9458 L1015,469.9458 L1015,454.9458 L1005,444.9458 L933,444.9458 " fill="#FFFFFF" style="stroke:#000000;stroke-width:1.0;"/><path d="M1005,444.9458 L1005,454.9458 L1015,454.9458 L1005,444.9458 " fill="#FFFFFF" style="stroke:#000000;stroke-width:1.0;"/><text fill="#000000" font-family="Verdana" font-size="13" lengthAdjust="spacing" textLength="61" x="939" y="463.0156">REST call</text><polygon fill="#000000" points="1275.5,496.5444,1285.5,500.5444,1275.5,504.5444,1279.5,500.5444" style="stroke:#000000;stroke-width:1.0;"/><line style="stroke:#000000;stroke-width:1.0;" x1="928" x2="1281.5" y1="500.5444" y2="500.5444"/><text fill="#000000" font-family="Verdana" font-size="13" lengthAdjust="spacing" textLength="90" x="935" y="495.8149">validateTrade</text><path d="M1292,480.7451 L1292,505.7451 L1425,505.7451 L1425,490.7451 L1415,480.7451 L1292,480.7451 " fill="#FFFFFF" style="stroke:#000000;stroke-width:1.0;"/><path d="M1415,480.7451 L1415,490.7451 L1425,490.7451 L1415,480.7451 " fill="#FFFFFF" style="stroke:#000000;stroke-width:1.0;"/><text fill="#000000" font-family="Verdana" font-size="13" lengthAdjust="spacing" textLength="112" x="1298" y="498.8149">Unified validation</text><line style="stroke:#000000;stroke-width:1.0;" x1="1287.5" x2="1329.5" y1="533.3438" y2="533.3438"/><line style="stroke:#000000;stroke-width:1.0;" x1="1329.5" x2="1329.5" y1="533.3438" y2="546.3438"/><line style="stroke:#000000;stroke-width:1.0;" x1="1288.5" x2="1329.5" y1="546.3438" y2="546.3438"/><polygon fill="#000000" points="1298.5,542.3438,1288.5,546.3438,1298.5,550.3438,1294.5,546.3438" style="stroke:#000000;stroke-width:1.0;"/><text fill="#000000" font-family="Verdana" font-size="13" lengthAdjust="spacing" textLength="132" x="1294.5" y="528.6143">Check Version Rules</text><line style="stroke:#000000;stroke-width:1.0;" x1="1287.5" x2="1329.5" y1="576.1431" y2="576.1431"/><line style="stroke:#000000;stroke-width:1.0;" x1="1329.5" x2="1329.5" y1="576.1431" y2="589.1431"/><line style="stroke:#000000;stroke-width:1.0;" x1="1288.5" x2="1329.5" y1="589.1431" y2="589.1431"/><polygon fill="#000000" points="1298.5,585.1431,1288.5,589.1431,1298.5,593.1431,1294.5,589.1431" style="stroke:#000000;stroke-width:1.0;"/><text fill="#000000" font-family="Verdana" font-size="13" lengthAdjust="spacing" textLength="136" x="1294.5" y="571.4136">Check Maturity Date</text><line style="stroke:#000000;stroke-width:1.0;" x1="1287.5" x2="1329.5" y1="618.9424" y2="618.9424"/><line style="stroke:#000000;stroke-width:1.0;" x1="1329.5" x2="1329.5" y1="618.9424" y2="631.9424"/><line style="stroke:#000000;stroke-width:1.0;" x1="1288.5" x2="1329.5" y1="631.9424" y2="631.9424"/><polygon fill="#000000" points="1298.5,627.9424,1288.5,631.9424,1298.5,635.9424,1294.5,631.9424" style="stroke:#000000;stroke-width:1.0;"/><text fill="#000000" font-family="Verdana" font-size="13" lengthAdjust="spacing" textLength="133" x="1294.5" y="614.2129">Check Expiry Status</text><polygon fill="#000000" points="939,657.7417,929,661.7417,939,665.7417,935,661.7417" style="stroke:#000000;stroke-width:1.0;"/><line style="stroke:#000000;stroke-width:1.0;stroke-dasharray:2.0,2.0;" x1="933" x2="1286.5" y1="661.7417" y2="661.7417"/><text fill="#000000" font-family="Verdana" font-size="13" lengthAdjust="spacing" textLength="109" x="945" y="657.0122">Validation Result</text><path d="M489.5,676.7417 L553.5,676.7417 L553.5,684.541 L543.5,694.541 L489.5,694.541 L489.5,676.7417 " fill="#FFFFFF" style="stroke:#000000;stroke-width:1.0;"/><rect fill="none" height="211.9639" style="stroke:#000000;stroke-width:1.0;" width="727" x="489.5" y="676.7417"/><text fill="#000000" font-family="Verdana" font-size="13" font-weight="bold" lengthAdjust="spacing" textLength="19" x="504.5" y="690.8115">alt</text><text fill="#000000" font-family="Verdana" font-size="11" font-weight="bold" lengthAdjust="spacing" textLength="101" x="568.5" y="689.8008">[Trade is Valid]</text><polygon fill="#000000" points="1136,712.3403,1146,716.3403,1136,720.3403,1140,716.3403" style="stroke:#000000;stroke-width:1.0;"/><line style="stroke:#000000;stroke-width:1.0;" x1="928" x2="1142" y1="716.3403" y2="716.3403"/><text fill="#000000" font-family="Verdana" font-size="13" lengthAdjust="spacing" textLength="153" x="935" y="711.6108">Insert Trade Projection</text><polygon fill="#000000" points="939,742.1396,929,746.1396,939,750.1396,935,746.1396" style="stroke:#000000;stroke-width:1.0;"/><line style="stroke:#000000;stroke-width:1.0;stroke-dasharray:2.0,2.0;" x1="933" x2="1147" y1="746.1396" y2="746.1396"/><text fill="#000000" font-family="Verdana" font-size="13" lengthAdjust="spacing" textLength="115" x="945" y="741.4102">Projection Stored</text><polygon fill="#000000" points="605.5,771.939,595.5,775.939,605.5,779.939,601.5,775.939" style="stroke:#000000;stroke-width:1.0;"/><line style="stroke:#000000;stroke-width:1.0;stroke-dasharray:2.0,2.0;" x1="599.5" x2="927" y1="775.939" y2="775.939"/><text fill="#000000" font-family="Verdana" font-size="13" lengthAdjust="spacing" textLength="122" x="611.5" y="771.2095">Success Response</text><line style="stroke:#000000;stroke-width:1.0;stroke-dasharray:2.0,2.0;" x1="489.5" x2="1216.5" y1="784.939" y2="784.939"/><text fill="#000000" font-family="Verdana" font-size="11" font-weight="bold" lengthAdjust="spacing" textLength="115" x="494.5" y="795.998">[Trade is Invalid]</text><polygon fill="#000000" points="1136,817.1069,1146,821.1069,1136,825.1069,1140,821.1069" style="stroke:#000000;stroke-width:1.0;"/><line style="stroke:#000000;stroke-width:1.0;" x1="928" x2="1142" y1="821.1069" y2="821.1069"/><text fill="#000000" font-family="Verdana" font-size="13" lengthAdjust="spacing" textLength="151" x="935" y="816.3774">Insert Trade Exception</text><polygon fill="#000000" points="939,846.9063,929,850.9063,939,854.9063,935,850.9063" style="stroke:#000000;stroke-width:1.0;"/><line style="stroke:#000000;stroke-width:1.0;stroke-dasharray:2.0,2.0;" x1="933" x2="1147" y1="850.9063" y2="850.9063"/><text fill="#000000" font-family="Verdana" font-size="13" lengthAdjust="spacing" textLength="113" x="945" y="846.1768">Exception Stored</text><polygon fill="#000000" points="605.5,876.7056,595.5,880.7056,605.5,884.7056,601.5,880.7056" style="stroke:#000000;stroke-width:1.0;"/><line style="stroke:#000000;stroke-width:1.0;stroke-dasharray:2.0,2.0;" x1="599.5" x2="927" y1="880.7056" y2="880.7056"/><text fill="#000000" font-family="Verdana" font-size="13" lengthAdjust="spacing" textLength="107" x="611.5" y="875.9761">Validation Failed</text><polygon fill="#000000" points="57.5,913.5049,47.5,917.5049,57.5,921.5049,53.5,917.5049" style="stroke:#000000;stroke-width:1.0;"/><line style="stroke:#000000;stroke-width:1.0;stroke-dasharray:2.0,2.0;" x1="51.5" x2="593.5" y1="917.5049" y2="917.5049"/><text fill="#000000" font-family="Verdana" font-size="13" lengthAdjust="spacing" textLength="136" x="63.5" y="912.7754">Processing Complete</text><rect fill="#FFFFFF" height="3" style="stroke:#FFFFFF;stroke-width:1.0;" width="1454.5" x="5" y="946.4045"/><line style="stroke:#000000;stroke-width:0.5;" x1="5" x2="1459.5" y1="946.4045" y2="946.4045"/><line style="stroke:#000000;stroke-width:0.5;" x1="5" x2="1459.5" y1="949.4045" y2="949.4045"/><rect fill="#FFFFFF" height="23.7993" style="stroke:#000000;stroke-width:1.0;" width="100" x="682.25" y="935.5049"/><text fill="#000000" font-family="Verdana" font-size="13" font-weight="bold" lengthAdjust="spacing" textLength="82" x="688.25" y="952.5747">Query Flow</text><polygon fill="#000000" points="239.5,987.1035,249.5,991.1035,239.5,995.1035,243.5,991.1035" style="stroke:#000000;stroke-width:1.0;"/><line style="stroke:#000000;stroke-width:1.0;" x1="46.5" x2="245.5" y1="991.1035" y2="991.1035"/><text fill="#000000" font-family="Verdana" font-size="13" lengthAdjust="spacing" textLength="181" x="53.5" y="986.374">GET /api/trades/exceptions</text><polygon fill="#000000" points="916,1016.9028,926,1020.9028,916,1024.9028,920,1020.9028" style="stroke:#000000;stroke-width:1.0;"/><line style="stroke:#000000;stroke-width:1.0;" x1="251.5" x2="922" y1="1020.9028" y2="1020.9028"/><text fill="#000000" font-family="Verdana" font-size="13" lengthAdjust="spacing" textLength="115" x="258.5" y="1016.1733">Query Exceptions</text><polygon fill="#000000" points="1136,1046.7021,1146,1050.7021,1136,1054.7021,1140,1050.7021" style="stroke:#000000;stroke-width:1.0;"/><line style="stroke:#000000;stroke-width:1.0;" x1="928" x2="1142" y1="1050.7021" y2="1050.7021"/><text fill="#000000" font-family="Verdana" font-size="13" lengthAdjust="spacing" textLength="196" x="935" y="1045.9727">SELECT from trade_exception</text><polygon fill="#000000" points="939,1076.5015,929,1080.5015,939,1084.5015,935,1080.5015" style="stroke:#000000;stroke-width:1.0;"/><line style="stroke:#000000;stroke-width:1.0;stroke-dasharray:2.0,2.0;" x1="933" x2="1147" y1="1080.5015" y2="1080.5015"/><text fill="#000000" font-family="Verdana" font-size="13" lengthAdjust="spacing" textLength="121" x="945" y="1075.772">Exception Records</text><polygon fill="#000000" points="262.5,1106.3008,252.5,1110.3008,262.5,1114.3008,258.5,1110.3008" style="stroke:#000000;stroke-width:1.0;"/><line style="stroke:#000000;stroke-width:1.0;stroke-dasharray:2.0,2.0;" x1="256.5" x2="927" y1="1110.3008" y2="1110.3008"/><text fill="#000000" font-family="Verdana" font-size="13" lengthAdjust="spacing" textLength="100" x="268.5" y="1105.5713">Exception Data</text><polygon fill="#000000" points="57.5,1136.1001,47.5,1140.1001,57.5,1144.1001,53.5,1140.1001" style="stroke:#000000;stroke-width:1.0;"/><line style="stroke:#000000;stroke-width:1.0;stroke-dasharray:2.0,2.0;" x1="51.5" x2="250.5" y1="1140.1001" y2="1140.1001"/><text fill="#000000" font-family="Verdana" font-size="13" lengthAdjust="spacing" textLength="102" x="63.5" y="1135.3706">HTTP Response</text><rect fill="#FFFFFF" height="3" style="stroke:#FFFFFF;stroke-width:1.0;" width="1454.5" x="5" y="1168.9998"/><line style="stroke:#000000;stroke-width:0.5;" x1="5" x2="1459.5" y1="1168.9998" y2="1168.9998"/><line style="stroke:#000000;stroke-width:0.5;" x1="5" x2="1459.5" y1="1171.9998" y2="1171.9998"/><rect fill="#FFFFFF" height="23.7993" style="stroke:#000000;stroke-width:1.0;" width="147" x="658.75" y="1158.1001"/><text fill="#000000" font-family="Verdana" font-size="13" font-weight="bold" lengthAdjust="spacing" textLength="129" x="664.75" y="1175.1699">Expiry Processing</text><path d="M807,1198.8994 L883,1198.8994 L883,1206.6987 L873,1216.6987 L807,1216.6987 L807,1198.8994 " fill="#FFFFFF" style="stroke:#000000;stroke-width:1.0;"/><rect fill="none" height="313.9932" style="stroke:#000000;stroke-width:1.0;" width="642.5" x="807" y="1198.8994"/><text fill="#000000" font-family="Verdana" font-size="13" font-weight="bold" lengthAdjust="spacing" textLength="31" x="822" y="1212.9692">loop</text><text fill="#000000" font-family="Verdana" font-size="11" font-weight="bold" lengthAdjust="spacing" textLength="118" x="898" y="1211.9585">[Every 5 minutes]</text><line style="stroke:#000000;stroke-width:1.0;" x1="928" x2="970" y1="1238.498" y2="1238.498"/><line style="stroke:#000000;stroke-width:1.0;" x1="970" x2="970" y1="1238.498" y2="1251.498"/><line style="stroke:#000000;stroke-width:1.0;" x1="929" x2="970" y1="1251.498" y2="1251.498"/><polygon fill="#000000" points="939,1247.498,929,1251.498,939,1255.498,935,1251.498" style="stroke:#000000;stroke-width:1.0;"/><text fill="#000000" font-family="Verdana" font-size="13" lengthAdjust="spacing" textLength="170" x="935" y="1233.7686">@Scheduled Expiry Check</text><polygon fill="#000000" points="1136,1277.2974,1146,1281.2974,1136,1285.2974,1140,1281.2974" style="stroke:#000000;stroke-width:1.0;"/><line style="stroke:#000000;stroke-width:1.0;" x1="928" x2="1142" y1="1281.2974" y2="1281.2974"/><text fill="#000000" font-family="Verdana" font-size="13" lengthAdjust="spacing" textLength="141" x="935" y="1276.5679">Query Expired Trades</text><polygon fill="#000000" points="939,1307.0967,929,1311.0967,939,1315.0967,935,1311.0967" style="stroke:#000000;stroke-width:1.0;"/><line style="stroke:#000000;stroke-width:1.0;stroke-dasharray:2.0,2.0;" x1="933" x2="1147" y1="1311.0967" y2="1311.0967"/><text fill="#000000" font-family="Verdana" font-size="13" lengthAdjust="spacing" textLength="118" x="945" y="1306.3672">Expired Trade List</text><path d="M817,1326.0967 L893,1326.0967 L893,1333.896 L883,1343.896 L817,1343.896 L817,1326.0967 " fill="#FFFFFF" style="stroke:#000000;stroke-width:1.0;"/><rect fill="none" height="179.7959" style="stroke:#000000;stroke-width:1.0;" width="622.5" x="817" y="1326.0967"/><text fill="#000000" font-family="Verdana" font-size="13" font-weight="bold" lengthAdjust="spacing" textLength="31" x="832" y="1340.1665">loop</text><text fill="#000000" font-family="Verdana" font-size="11" font-weight="bold" lengthAdjust="spacing" textLength="162" x="908" y="1339.1558">[For each expired trade]</text><polygon fill="#000000" points="1275.5,1361.6953,1285.5,1365.6953,1275.5,1369.6953,1279.5,1365.6953" style="stroke:#000000;stroke-width:1.0;"/><line style="stroke:#000000;stroke-width:1.0;" x1="928" x2="1281.5" y1="1365.6953" y2="1365.6953"/><text fill="#000000" font-family="Verdana" font-size="13" lengthAdjust="spacing" textLength="196" x="935" y="1360.9658">checkAndMarkTradeAsExpired</text><line style="stroke:#000000;stroke-width:1.0;" x1="1287.5" x2="1329.5" y1="1395.4946" y2="1395.4946"/><line style="stroke:#000000;stroke-width:1.0;" x1="1329.5" x2="1329.5" y1="1395.4946" y2="1408.4946"/><line style="stroke:#000000;stroke-width:1.0;" x1="1288.5" x2="1329.5" y1="1408.4946" y2="1408.4946"/><polygon fill="#000000" points="1298.5,1404.4946,1288.5,1408.4946,1298.5,1412.4946,1294.5,1408.4946" style="stroke:#000000;stroke-width:1.0;"/><text fill="#000000" font-family="Verdana" font-size="13" lengthAdjust="spacing" textLength="133" x="1294.5" y="1390.7651">Validate Expiry Date</text><polygon fill="#000000" points="939,1434.2939,929,1438.2939,939,1442.2939,935,1438.2939" style="stroke:#000000;stroke-width:1.0;"/><line style="stroke:#000000;stroke-width:1.0;stroke-dasharray:2.0,2.0;" x1="933" x2="1286.5" y1="1438.2939" y2="1438.2939"/><text fill="#000000" font-family="Verdana" font-size="13" lengthAdjust="spacing" textLength="109" x="945" y="1433.5645">Expiry Confirmed</text><polygon fill="#000000" points="1136,1464.0933,1146,1468.0933,1136,1472.0933,1140,1468.0933" style="stroke:#000000;stroke-width:1.0;"/><line style="stroke:#000000;stroke-width:1.0;" x1="928" x2="1142" y1="1468.0933" y2="1468.0933"/><text fill="#000000" font-family="Verdana" font-size="13" lengthAdjust="spacing" textLength="132" x="935" y="1463.3638">UPDATE expired = Y</text><polygon fill="#000000" points="939,1493.8926,929,1497.8926,939,1501.8926,935,1497.8926" style="stroke:#000000;stroke-width:1.0;"/><line style="stroke:#000000;stroke-width:1.0;stroke-dasharray:2.0,2.0;" x1="933" x2="1147" y1="1497.8926" y2="1497.8926"/><text fill="#000000" font-family="Verdana" font-size="13" lengthAdjust="spacing" textLength="162" x="945" y="1493.1631">Trade Marked as Expired</text><!--SRC=[bLNRJXin47ttLxYy8vxwWfGAcYmqAgWX2KXzgentahZnsblR6-3lExRtOkTIQAJSx3DdPivSzfFRG0MqbameueIJG9U6bK0NJXkWvtHcD0ThXLhJ1VnfG74Wf6R62IvgfXmz6qi1ofrHPYaFF_FhI3TLQx1EQ8KiPYSu1BpeJdEJxsorPNGi6-l01E3MdnpZ7RFQDHXeoihZMGwVl2bMwSdNW2Z3d_Bv6ECJaw9a1w7k-kFSQAQjMnjOFDm5M1t_sgEnwghIAeOOVX8o6hLo9pBVIFr2HoD2efhq_CkW4xsain-B9RrWjRXmtj8IfHrG8zORXxUH3GDbz4MuJH8sDOr4D1cuzeZRnBi6c237QV0jA30UFFTDOHsTJd9mg9WFjtcMmcvQqcBd-oEBsEbQSFpozx-6XY2H09dQSY9qh9LjAZZDTHKwvqvWts1ug61hki-o0-FGSIIwroN85Dfr1sBZ59pqDslSr47LQa18RtcUUGoMaQlCWaggSqcRsgiVV64t_0RkWaNkSLvWzJcJaf34s7iB7OM8zZWIvSQFIgm4b6alazOkPHXlW6_f4nZhkUUXRKx2xXac8zoRxnSu3IjUQs7UK0E4sy7hlWR9yCt1DX8rPTAr1H0stXEAhppxRkoGOggihsu_Lbv8dwatwc47ZWTWLwTz9rb55mttu-g3hB4fWO2qC8GvLRl_3BHuvL1_8CuUzw4m4pblc9081vLse0V79NEPRY1SLBK4BAVVJmyDOE7UMKgtHRQJBg0Bq-PR8SibCXS3zAHKY-Ak62_fokYgNHIz0_8HhUR0jIbp1tiP3E3znPUAz6svd0r5z_AqZPsevrMIMjT-xF7cCws4QXpEq64tPE5UBVW6IfosiYCDe_Fl9keqH3pQBUCJuRqMIi3KByjW43v2t3VQK61yGw551id3_M4i_Pnp7-orAk-PsGRgQzjwwYsFR8V-eTEc7BR8Flve1cz-aQ-4gH879sLwd4skbqMVq8Z-x6rE2nK5ylcW2JwqqtJy7FdtNm00]--></g></svg>