<?xml version="1.0" encoding="us-ascii" standalone="no"?><svg xmlns="http://www.w3.org/2000/svg" xmlns:xlink="http://www.w3.org/1999/xlink" contentStyleType="text/css" height="993px" preserveAspectRatio="none" style="width:1372px;height:993px;background:#FFFFFF;" version="1.1" viewBox="0 0 1372 993" width="1372px" zoomAndPan="magnify"><defs/><g><text fill="#000000" font-family="Verdana" font-size="22" font-weight="bold" lengthAdjust="spacing" textLength="477" x="443" y="37.1182">Trade Store - Component Architecture</text><!--cluster Trade Ingestion Service--><g id="cluster_Trade Ingestion Service"><path d="M13.5,131.9139 L200.5,131.9139 A3.75,3.75 0 0 1 203,134.4139 L210,154.9286 L365.5,154.9286 A2.5,2.5 0 0 1 368,157.4286 L368,335.4139 A2.5,2.5 0 0 1 365.5,337.9139 L13.5,337.9139 A2.5,2.5 0 0 1 11,335.4139 L11,134.4139 A2.5,2.5 0 0 1 13.5,131.9139 " fill="#FFFFFF" style="stroke:#000000;stroke-width:1.0;"/><line style="stroke:#000000;stroke-width:1.0;" x1="11" x2="210" y1="154.9286" y2="154.9286"/><text fill="#000000" font-family="Verdana" font-size="14" font-weight="bold" lengthAdjust="spacing" textLength="186" x="15" y="147.9891">Trade Ingestion Service</text></g><!--cluster Trade Capture Service--><g id="cluster_Trade Capture Service"><path d="M135.5,452.9139 L309.5,452.9139 A3.75,3.75 0 0 1 312,455.4139 L319,475.9286 L326.5,475.9286 A2.5,2.5 0 0 1 329,478.4286 L329,763.4139 A2.5,2.5 0 0 1 326.5,765.9139 L135.5,765.9139 A2.5,2.5 0 0 1 133,763.4139 L133,455.4139 A2.5,2.5 0 0 1 135.5,452.9139 " fill="#FFFFFF" style="stroke:#000000;stroke-width:1.0;"/><line style="stroke:#000000;stroke-width:1.0;" x1="133" x2="319" y1="475.9286" y2="475.9286"/><text fill="#000000" font-family="Verdana" font-size="14" font-weight="bold" lengthAdjust="spacing" textLength="173" x="137" y="468.9891">Trade Capture Service</text></g><!--cluster Trade Validation Service--><g id="cluster_Trade Validation Service"><path d="M355.5,666.9139 L544.5,666.9139 A3.75,3.75 0 0 1 547,669.4139 L554,689.9286 L735.5,689.9286 A2.5,2.5 0 0 1 738,692.4286 L738,886.4139 A2.5,2.5 0 0 1 735.5,888.9139 L355.5,888.9139 A2.5,2.5 0 0 1 353,886.4139 L353,669.4139 A2.5,2.5 0 0 1 355.5,666.9139 " fill="#FFFFFF" style="stroke:#000000;stroke-width:1.0;"/><line style="stroke:#000000;stroke-width:1.0;" x1="353" x2="554" y1="689.9286" y2="689.9286"/><text fill="#000000" font-family="Verdana" font-size="14" font-weight="bold" lengthAdjust="spacing" textLength="188" x="357" y="682.9891">Trade Validation Service</text></g><!--cluster Trade Common Module--><g id="cluster_Trade Common Module"><path d="M764.5,789.9139 L945.5,789.9139 A3.75,3.75 0 0 1 948,792.4139 L955,812.9286 L1362.5,812.9286 A2.5,2.5 0 0 1 1365,815.4286 L1365,886.4139 A2.5,2.5 0 0 1 1362.5,888.9139 L764.5,888.9139 A2.5,2.5 0 0 1 762,886.4139 L762,792.4139 A2.5,2.5 0 0 1 764.5,789.9139 " fill="#FFFFFF" style="stroke:#000000;stroke-width:1.0;"/><line style="stroke:#000000;stroke-width:1.0;" x1="762" x2="955" y1="812.9286" y2="812.9286"/><text fill="#000000" font-family="Verdana" font-size="14" font-weight="bold" lengthAdjust="spacing" textLength="180" x="766" y="805.9891">Trade Common Module</text></g><!--entity restController--><g id="elem_restController"><rect fill="#FFFFFF" height="47.0146" rx="2.5" ry="2.5" style="stroke:#000000;stroke-width:1.0;" width="152" x="200" y="167.9139"/><rect fill="#FFFFFF" height="10" style="stroke:#000000;stroke-width:1.0;" width="15" x="332" y="172.9139"/><rect fill="#FFFFFF" height="2" style="stroke:#000000;stroke-width:1.0;" width="4" x="330" y="174.9139"/><rect fill="#FFFFFF" height="2" style="stroke:#000000;stroke-width:1.0;" width="4" x="330" y="178.9139"/><text fill="#000000" font-family="Verdana" font-size="14" lengthAdjust="spacing" textLength="112" x="215" y="201.9891">REST Controller</text></g><!--entity kafkaProducer--><g id="elem_kafkaProducer"><rect fill="#FFFFFF" height="47.0146" rx="2.5" ry="2.5" style="stroke:#000000;stroke-width:1.0;" width="146" x="192" y="274.9139"/><rect fill="#FFFFFF" height="10" style="stroke:#000000;stroke-width:1.0;" width="15" x="318" y="279.9139"/><rect fill="#FFFFFF" height="2" style="stroke:#000000;stroke-width:1.0;" width="4" x="316" y="281.9139"/><rect fill="#FFFFFF" height="2" style="stroke:#000000;stroke-width:1.0;" width="4" x="316" y="285.9139"/><text fill="#000000" font-family="Verdana" font-size="14" lengthAdjust="spacing" textLength="106" x="207" y="308.9891">Kafka Producer</text></g><!--entity queryService--><g id="elem_queryService"><rect fill="#FFFFFF" height="47.0146" rx="2.5" ry="2.5" style="stroke:#000000;stroke-width:1.0;" width="137" x="27.5" y="167.9139"/><rect fill="#FFFFFF" height="10" style="stroke:#000000;stroke-width:1.0;" width="15" x="144.5" y="172.9139"/><rect fill="#FFFFFF" height="2" style="stroke:#000000;stroke-width:1.0;" width="4" x="142.5" y="174.9139"/><rect fill="#FFFFFF" height="2" style="stroke:#000000;stroke-width:1.0;" width="4" x="142.5" y="178.9139"/><text fill="#000000" font-family="Verdana" font-size="14" lengthAdjust="spacing" textLength="97" x="42.5" y="201.9891">Query Service</text></g><!--entity kafkaConsumer--><g id="elem_kafkaConsumer"><rect fill="#FFFFFF" height="47.0146" rx="2.5" ry="2.5" style="stroke:#000000;stroke-width:1.0;" width="156" x="157" y="488.9139"/><rect fill="#FFFFFF" height="10" style="stroke:#000000;stroke-width:1.0;" width="15" x="293" y="493.9139"/><rect fill="#FFFFFF" height="2" style="stroke:#000000;stroke-width:1.0;" width="4" x="291" y="495.9139"/><rect fill="#FFFFFF" height="2" style="stroke:#000000;stroke-width:1.0;" width="4" x="291" y="499.9139"/><text fill="#000000" font-family="Verdana" font-size="14" lengthAdjust="spacing" textLength="116" x="172" y="522.9891">Kafka Consumer</text></g><!--entity tradeProcessor--><g id="elem_tradeProcessor"><rect fill="#FFFFFF" height="47.0146" rx="2.5" ry="2.5" style="stroke:#000000;stroke-width:1.0;" width="154" x="159" y="595.9139"/><rect fill="#FFFFFF" height="10" style="stroke:#000000;stroke-width:1.0;" width="15" x="293" y="600.9139"/><rect fill="#FFFFFF" height="2" style="stroke:#000000;stroke-width:1.0;" width="4" x="291" y="602.9139"/><rect fill="#FFFFFF" height="2" style="stroke:#000000;stroke-width:1.0;" width="4" x="291" y="606.9139"/><text fill="#000000" font-family="Verdana" font-size="14" lengthAdjust="spacing" textLength="114" x="174" y="629.9891">Trade Processor</text></g><!--entity dynamoClient--><g id="elem_dynamoClient"><rect fill="#FFFFFF" height="47.0146" rx="2.5" ry="2.5" style="stroke:#000000;stroke-width:1.0;" width="163" x="149.5" y="702.9139"/><rect fill="#FFFFFF" height="10" style="stroke:#000000;stroke-width:1.0;" width="15" x="292.5" y="707.9139"/><rect fill="#FFFFFF" height="2" style="stroke:#000000;stroke-width:1.0;" width="4" x="290.5" y="709.9139"/><rect fill="#FFFFFF" height="2" style="stroke:#000000;stroke-width:1.0;" width="4" x="290.5" y="713.9139"/><text fill="#000000" font-family="Verdana" font-size="14" lengthAdjust="spacing" textLength="123" x="164.5" y="736.9891">DynamoDB Client</text></g><!--entity validationEngine--><g id="elem_validationEngine"><rect fill="#FFFFFF" height="47.0146" rx="2.5" ry="2.5" style="stroke:#000000;stroke-width:1.0;" width="160" x="562" y="702.9139"/><rect fill="#FFFFFF" height="10" style="stroke:#000000;stroke-width:1.0;" width="15" x="702" y="707.9139"/><rect fill="#FFFFFF" height="2" style="stroke:#000000;stroke-width:1.0;" width="4" x="700" y="709.9139"/><rect fill="#FFFFFF" height="2" style="stroke:#000000;stroke-width:1.0;" width="4" x="700" y="713.9139"/><text fill="#000000" font-family="Verdana" font-size="14" lengthAdjust="spacing" textLength="120" x="577" y="736.9891">Validation Engine</text></g><!--entity projectionService--><g id="elem_projectionService"><rect fill="#FFFFFF" height="47.0146" rx="2.5" ry="2.5" style="stroke:#000000;stroke-width:1.0;" width="165" x="528.5" y="825.9139"/><rect fill="#FFFFFF" height="10" style="stroke:#000000;stroke-width:1.0;" width="15" x="673.5" y="830.9139"/><rect fill="#FFFFFF" height="2" style="stroke:#000000;stroke-width:1.0;" width="4" x="671.5" y="832.9139"/><rect fill="#FFFFFF" height="2" style="stroke:#000000;stroke-width:1.0;" width="4" x="671.5" y="836.9139"/><text fill="#000000" font-family="Verdana" font-size="14" lengthAdjust="spacing" textLength="125" x="543.5" y="859.9891">Projection Service</text></g><!--entity expiryScheduler--><g id="elem_expiryScheduler"><rect fill="#FFFFFF" height="47.0146" rx="2.5" ry="2.5" style="stroke:#000000;stroke-width:1.0;" width="158" x="369" y="702.9139"/><rect fill="#FFFFFF" height="10" style="stroke:#000000;stroke-width:1.0;" width="15" x="507" y="707.9139"/><rect fill="#FFFFFF" height="2" style="stroke:#000000;stroke-width:1.0;" width="4" x="505" y="709.9139"/><rect fill="#FFFFFF" height="2" style="stroke:#000000;stroke-width:1.0;" width="4" x="505" y="713.9139"/><text fill="#000000" font-family="Verdana" font-size="14" lengthAdjust="spacing" textLength="118" x="384" y="736.9891">Expiry Scheduler</text></g><!--entity tradeModel--><g id="elem_tradeModel"><rect fill="#FFFFFF" height="47.0146" rx="2.5" ry="2.5" style="stroke:#000000;stroke-width:1.0;" width="125" x="1223.5" y="825.9139"/><rect fill="#FFFFFF" height="10" style="stroke:#000000;stroke-width:1.0;" width="15" x="1328.5" y="830.9139"/><rect fill="#FFFFFF" height="2" style="stroke:#000000;stroke-width:1.0;" width="4" x="1326.5" y="832.9139"/><rect fill="#FFFFFF" height="2" style="stroke:#000000;stroke-width:1.0;" width="4" x="1326.5" y="836.9139"/><text fill="#000000" font-family="Verdana" font-size="14" lengthAdjust="spacing" textLength="85" x="1238.5" y="859.9891">Trade Model</text></g><!--entity validationAnnotations--><g id="elem_validationAnnotations"><rect fill="#FFFFFF" height="47.0146" rx="2.5" ry="2.5" style="stroke:#000000;stroke-width:1.0;" width="199" x="989.5" y="825.9139"/><rect fill="#FFFFFF" height="10" style="stroke:#000000;stroke-width:1.0;" width="15" x="1168.5" y="830.9139"/><rect fill="#FFFFFF" height="2" style="stroke:#000000;stroke-width:1.0;" width="4" x="1166.5" y="832.9139"/><rect fill="#FFFFFF" height="2" style="stroke:#000000;stroke-width:1.0;" width="4" x="1166.5" y="836.9139"/><text fill="#000000" font-family="Verdana" font-size="14" lengthAdjust="spacing" textLength="159" x="1004.5" y="859.9891">Validation Annotations</text></g><!--entity commonValidation--><g id="elem_commonValidation"><rect fill="#FFFFFF" height="47.0146" rx="2.5" ry="2.5" style="stroke:#000000;stroke-width:1.0;" width="176" x="778" y="825.9139"/><rect fill="#FFFFFF" height="10" style="stroke:#000000;stroke-width:1.0;" width="15" x="934" y="830.9139"/><rect fill="#FFFFFF" height="2" style="stroke:#000000;stroke-width:1.0;" width="4" x="932" y="832.9139"/><rect fill="#FFFFFF" height="2" style="stroke:#000000;stroke-width:1.0;" width="4" x="932" y="836.9139"/><text fill="#000000" font-family="Verdana" font-size="14" lengthAdjust="spacing" textLength="136" x="793" y="859.9891">Common Validation</text></g><!--entity clients--><g id="elem_clients"><path d="M214.522,69.4098 C218.8659,63.4292 224.0436,62.7349 228.5907,69.1796 C231.374,64.0026 234.7712,62.0688 239.6223,66.9005 C242.9214,61.7389 247.4505,60.4635 251.6789,65.837 C255.3931,59.0762 261.6709,59.867 265.0648,66.1653 C268.1275,59.8515 272.164,59.7716 276.775,64.5274 C281.2824,58.9709 286.7996,58.7373 290.4694,65.4614 C294.5376,59.8349 298.3242,60.9567 302.0809,65.8068 C306.2267,60.6672 311.7667,61.6775 314.654,67.2799 C318.9296,61.1618 324.1366,63.7055 326.6776,69.0926 C330.403,63.5518 334.704,63.4048 338.4412,69.0802 C348.9958,69.5278 353.0625,75.4617 347.0473,84.9149 C352.4376,93.3105 347.6541,99.3748 338.999,100.532 C336.5631,105.8636 332.1811,108.0356 327.6064,102.8485 C325.0472,109.6006 319.5567,110.6779 315.3036,104.4546 C311.7465,112.6055 306.7128,112.7062 301.0619,106.5369 C298.4068,113.3242 294.204,114.2211 289.3869,108.5655 C287.0613,114.251 282.0749,115.5177 277.8847,110.5854 C273.6846,116.6748 267.1615,116.3429 263.9767,109.494 C258.6837,113.931 254.4025,111.375 252.6012,105.6033 C247.9474,110.9152 243.8545,111.9142 239.4369,105.3417 C234.4765,110.9005 230.0466,109.3982 227.8402,102.7297 C222.1041,107.537 218.0314,106.9589 214.5489,100.1509 C205.9773,98.3466 202.2903,92.2309 207.9092,84.4323 C203.3441,77.8707 205.433,69.961 214.522,69.4098 " fill="#FFFFFF" style="stroke:#000000;stroke-width:1.0;"/><text fill="#000000" font-family="Verdana" font-size="14" lengthAdjust="spacing" textLength="110" x="221" y="89.9891">External Clients</text></g><!--entity kafka--><g id="elem_kafka"><path d="M191.2181,391.7864 C195.2807,385.1579 200.247,384.8705 205.4819,390.4124 C208.3456,384.5093 213.1038,382.8372 218.1642,387.8632 C222.276,381.3805 228.022,381.9973 232.3284,387.6357 C236.2274,381.1021 241.7953,378.9969 246.9049,386.3666 C251.0538,379.5569 256.5195,379.9328 260.3887,386.6456 C264.7585,381.3852 269.8242,381.5549 273.6386,387.3135 C279.3291,380.7296 283.9891,381.227 287.4621,389.3919 C291.7898,382.4179 297.0571,382.6812 300.7165,390.0112 C308.2776,394.154 309.477,400.4643 302.9348,406.504 C308.4761,411.8804 306.9212,419.0804 299.344,421.2658 C296.3018,427.8288 291.7111,427.7252 286.9829,423.1343 C283.302,429.8472 278.2873,430.5815 273.0637,424.8615 C269.8728,433.7908 264.7897,432.7584 258.6389,427.975 C255.0201,433.1653 251.3671,434.9312 246.6795,429.1388 C240.5331,436.1228 236.0529,435.5899 232.0798,427.0897 C227.5842,432.161 222.4127,431.9899 219.5946,425.3078 C215.9495,430.7119 209.5279,431.5141 206.2609,424.8888 C200.7249,429.5988 194.9882,427.7168 192.8425,420.9313 C182.7047,420.5577 179.3434,414.6955 182.9815,405.5119 C179.5405,397.3108 181.2292,391.9283 191.2181,391.7864 " fill="#FFFFFF" style="stroke:#000000;stroke-width:1.0;"/><text fill="#000000" font-family="Verdana" font-size="14" lengthAdjust="spacing" textLength="94" x="198" y="410.9891">Kafka Cluster</text></g><!--entity dynamodb--><g id="elem_dynamodb"><path d="M165.9511,835.7341 C169.2338,829.977 172.9091,829.0518 177.5066,834.3613 C179.5387,830.079 183.9661,828.9503 187.1188,833.081 C190.0976,827.9394 194.5993,827.3486 198.7005,831.7135 C201.8075,825.9093 206.9531,825.9256 210.5457,831.1941 C212.929,826.754 217.8736,826.0817 220.9056,830.4294 C225.0176,825.2932 229.1474,825.5836 232.9646,830.7736 C235.3443,825.495 240.3706,824.5698 243.8849,829.5681 C247.2446,825.4275 251.3826,826.0297 253.8436,830.596 C258.1118,826.1122 263.2408,825.7135 265.7387,832.4695 C268.8026,827.5661 272.7825,828.2593 275.7074,832.6191 C280.0141,827.4456 285.4513,827.6453 288.0579,834.382 C290.7094,829.4552 294.8392,829.6362 297.8645,833.9868 C305.3773,837.8944 307.1782,845.3794 299.53,850.7897 C307.0433,856.531 306.2953,861.0132 298.54,865.7436 C295.4924,871.4679 290.6325,870.0999 287.8199,865.4996 C285.1361,870.8132 280.4538,870.3803 277.4871,865.795 C274.2229,870.6095 269.0013,871.542 265.6526,865.8906 C262.5356,872.4581 258.5522,871.5883 254.2635,867.0974 C251.1006,872.4891 247.1395,872.3402 243.6604,867.4225 C240.1585,873.998 235.1427,872.8491 231.1921,867.9084 C227.969,872.2944 222.6097,872.8634 219.9961,867.2275 C217.1028,872.033 213.1828,872.2994 210.4469,867.0777 C207.4579,872.1361 203.0414,873.5005 199.4258,867.7145 C195.3693,873.3168 190.2749,871.4239 188.0705,865.8353 C185.2085,871.6105 180.0202,871.9879 176.7946,866.1896 C174.0716,871.915 168.5545,873.093 164.9462,867.0836 C154.9148,864.8008 152.5314,859.2774 156.9195,850.1569 C152.7623,842.264 156.7296,835.2492 165.9511,835.7341 " fill="#FFFFFF" style="stroke:#000000;stroke-width:1.0;"/><text fill="#000000" font-family="Verdana" font-size="14" lengthAdjust="spacing" textLength="119" x="171.5" y="854.9891">AWS DynamoDB</text></g><!--entity postgres--><g id="elem_postgres"><path d="M400.7232,941.5666 C403.4259,935.8206 409.2471,934.6692 413.1917,940.1925 C416.2546,933.3557 422.175,932.7849 425.9086,939.5662 C428.0375,935.0612 433.0209,934.5046 435.9876,938.5825 C439.2439,931.6904 445.9426,930.8427 450.0424,937.7215 C453.4937,931.294 457.4045,932.3962 461.3992,937.1707 C466.1953,932.9491 470.4136,933.179 473.3415,939.3231 C476.9883,933.3916 482.8058,933.6504 486.1375,939.6607 C491.0238,935.3262 494.487,936.7778 497.0921,942.2173 C506.0716,945.9501 505.1638,952.1039 499.4241,958.0101 C505.5858,963.7353 503.9167,968.7653 497.1746,972.4851 C494.8832,979.2564 490.321,981.5598 484.6545,975.8785 C481.8742,981.1081 478.0103,981.9755 474.0215,977.1574 C471.5885,983.9293 466.191,986.259 460.6428,980.4773 C457.9881,986.6078 454.3078,986.4772 449.8219,982.4228 C445.5635,986.5317 439.8292,985.306 438.0667,979.4719 C433.0412,985.4957 428.5826,985.2775 425.2595,977.851 C419.3782,981.7938 415.0421,982.0853 412.3847,974.3091 C408.2381,979.0518 404.4103,978.9456 401.5474,973.0068 C392.977,971.6085 388.4775,964.5172 394.4181,956.7538 C388.5265,948.5186 390.3953,943.0681 400.7232,941.5666 " fill="#FFFFFF" style="stroke:#000000;stroke-width:1.0;"/><text fill="#000000" font-family="Verdana" font-size="14" lengthAdjust="spacing" textLength="83" x="406.5" y="961.9891">PostgreSQL</text></g><g id="elem_GMN37"><path d="M387.5,178.4139 L387.5,187.4139 L352.1,191.4139 L387.5,195.4139 L387.5,204.2133 A0,0 0 0 0 387.5,204.2133 L472.5,204.2133 A0,0 0 0 0 472.5,204.2133 L472.5,188.4139 L462.5,178.4139 L387.5,178.4139 A0,0 0 0 0 387.5,178.4139 " fill="#FFFFFF" style="stroke:#000000;stroke-width:1.0;"/><path d="M462.5,178.4139 L462.5,188.4139 L472.5,188.4139 L462.5,178.4139 " fill="#FFFFFF" style="stroke:#000000;stroke-width:1.0;"/><text fill="#000000" font-family="Verdana" font-size="13" lengthAdjust="spacing" textLength="64" x="393.5" y="196.4838">Port 8081</text></g><g id="elem_GMN40"><path d="M899.5,606.4139 L899.5,615.4139 L313.22,619.4139 L899.5,623.4139 L899.5,632.2133 A0,0 0 0 0 899.5,632.2133 L984.5,632.2133 A0,0 0 0 0 984.5,632.2133 L984.5,616.4139 L974.5,606.4139 L899.5,606.4139 A0,0 0 0 0 899.5,606.4139 " fill="#FFFFFF" style="stroke:#000000;stroke-width:1.0;"/><path d="M974.5,606.4139 L974.5,616.4139 L984.5,616.4139 L974.5,606.4139 " fill="#FFFFFF" style="stroke:#000000;stroke-width:1.0;"/><text fill="#000000" font-family="Verdana" font-size="13" lengthAdjust="spacing" textLength="64" x="905.5" y="624.4838">Port 8082</text></g><g id="elem_GMN43"><path d="M899.5,713.4139 L899.5,722.4139 L722.27,726.4139 L899.5,730.4139 L899.5,739.2133 A0,0 0 0 0 899.5,739.2133 L984.5,739.2133 A0,0 0 0 0 984.5,739.2133 L984.5,723.4139 L974.5,713.4139 L899.5,713.4139 A0,0 0 0 0 899.5,713.4139 " fill="#FFFFFF" style="stroke:#000000;stroke-width:1.0;"/><path d="M974.5,713.4139 L974.5,723.4139 L984.5,723.4139 L974.5,713.4139 " fill="#FFFFFF" style="stroke:#000000;stroke-width:1.0;"/><text fill="#000000" font-family="Verdana" font-size="13" lengthAdjust="spacing" textLength="64" x="905.5" y="731.4838">Port 8083</text></g><!--link clients to restController--><g id="link_clients_restController"><path d="M276,107.9439 C276,125.5339 276,143.8839 276,161.5639 " fill="none" id="clients-to-restController" style="stroke:#000000;stroke-width:1.0;"/><polygon fill="#000000" points="276,167.5639,280,158.5639,276,162.5639,272,158.5639,276,167.5639" style="stroke:#000000;stroke-width:1.0;"/></g><!--link restController to kafkaProducer--><g id="link_restController_kafkaProducer"><path d="M273.64,214.9439 C271.8,232.5339 269.8778,250.9169 268.0178,268.5969 " fill="none" id="restController-to-kafkaProducer" style="stroke:#000000;stroke-width:1.0;"/><polygon fill="#000000" points="267.39,274.5639,272.3097,266.0318,267.9131,269.5914,264.3536,265.1948,267.39,274.5639" style="stroke:#000000;stroke-width:1.0;"/></g><!--link kafkaProducer to kafka--><g id="link_kafkaProducer_kafka"><path d="M260.71,321.9439 C257.36,339.5339 253.8434,357.9901 250.4734,375.6701 " fill="none" id="kafkaProducer-to-kafka" style="stroke:#000000;stroke-width:1.0;"/><polygon fill="#000000" points="249.35,381.5639,254.9644,373.4721,250.2862,376.6524,247.1059,371.9742,249.35,381.5639" style="stroke:#000000;stroke-width:1.0;"/></g><!--link kafka to kafkaConsumer--><g id="link_kafka_kafkaConsumer"><path d="M242.85,428.9439 C241.18,446.5339 239.4276,464.9108 237.7476,482.5908 " fill="none" id="kafka-to-kafkaConsumer" style="stroke:#000000;stroke-width:1.0;"/><polygon fill="#000000" points="237.18,488.5639,242.0134,479.9827,237.653,483.5864,234.0493,479.2259,237.18,488.5639" style="stroke:#000000;stroke-width:1.0;"/></g><!--link kafkaConsumer to tradeProcessor--><g id="link_kafkaConsumer_tradeProcessor"><path d="M235.21,535.9439 C235.38,553.5339 235.5523,571.8842 235.7223,589.5642 " fill="none" id="kafkaConsumer-to-tradeProcessor" style="stroke:#000000;stroke-width:1.0;"/><polygon fill="#000000" points="235.78,595.5639,239.6933,586.5259,235.7319,590.5642,231.6937,586.6028,235.78,595.5639" style="stroke:#000000;stroke-width:1.0;"/></g><!--link tradeProcessor to dynamoClient--><g id="link_tradeProcessor_dynamoClient"><path d="M234.93,642.9439 C234.09,660.5339 233.2147,678.8907 232.3747,696.5707 " fill="none" id="tradeProcessor-to-dynamoClient" style="stroke:#000000;stroke-width:1.0;"/><polygon fill="#000000" points="232.09,702.5639,236.5126,693.7639,232.3273,697.5696,228.5216,693.3842,232.09,702.5639" style="stroke:#000000;stroke-width:1.0;"/></g><!--link dynamoClient to dynamodb--><g id="link_dynamoClient_dynamodb"><path d="M231,750.1739 C231,771.8039 231,798.1539 231,819.7539 " fill="none" id="dynamoClient-to-dynamodb" style="stroke:#000000;stroke-width:1.0;"/><polygon fill="#000000" points="231,825.7539,235,816.7539,231,820.7539,227,816.7539,231,825.7539" style="stroke:#000000;stroke-width:1.0;"/></g><!--link tradeProcessor to validationEngine--><g id="link_tradeProcessor_validationEngine"><path d="M313.02,619.9939 C377.05,621.9639 469.56,630.3039 545,658.9139 C571.54,668.9739 593.1912,683.933 611.7112,698.963 " fill="none" id="tradeProcessor-to-validationEngine" style="stroke:#000000;stroke-width:1.0;"/><polygon fill="#000000" points="616.37,702.7439,611.9023,693.9667,612.4876,699.5932,606.8611,700.1785,616.37,702.7439" style="stroke:#000000;stroke-width:1.0;"/></g><!--link validationEngine to projectionService--><g id="link_validationEngine_projectionService"><path d="M636.17,750.1739 C630.63,771.8039 623.8306,798.3421 618.2906,819.9421 " fill="none" id="validationEngine-to-projectionService" style="stroke:#000000;stroke-width:1.0;"/><polygon fill="#000000" points="616.8,825.7539,622.9105,818.0299,618.0422,820.9107,615.1614,816.0424,616.8,825.7539" style="stroke:#000000;stroke-width:1.0;"/></g><!--link projectionService to postgres--><g id="link_projectionService_postgres"><path d="M576.03,872.9439 C548.62,890.5939 515.7045,911.8054 488.2345,929.4954 " fill="none" id="projectionService-to-postgres" style="stroke:#000000;stroke-width:1.0;"/><polygon fill="#000000" points="483.19,932.7439,492.9224,931.2341,487.3938,930.0368,488.5911,924.5081,483.19,932.7439" style="stroke:#000000;stroke-width:1.0;"/></g><!--link queryService to postgres--><g id="link_queryService_postgres"><path d="M96,215.0039 C96,253.7539 96,335.4039 96,404.4139 C96,404.4139 96,404.4139 96,727.4139 C96,805.1339 82.38,843.6639 139,896.9139 C174.7,930.4839 306.2679,945.2814 385.2879,951.3914 " fill="none" id="queryService-to-postgres" style="stroke:#000000;stroke-width:1.0;"/><polygon fill="#000000" points="391.27,951.8539,382.6052,947.172,386.2849,951.4685,381.9884,955.1482,391.27,951.8539" style="stroke:#000000;stroke-width:1.0;"/></g><!--link expiryScheduler to postgres--><g id="link_expiryScheduler_postgres"><path d="M448,750.1139 C448,793.8139 448,883.1839 448,926.8139 " fill="none" id="expiryScheduler-to-postgres" style="stroke:#000000;stroke-width:1.0;"/><polygon fill="#000000" points="448,932.8139,452,923.8139,448,927.8139,444,923.8139,448,932.8139" style="stroke:#000000;stroke-width:1.0;"/></g><!--link validationEngine to commonValidation--><g id="link_validationEngine_commonValidation"><path d="M683.87,750.0339 C724.01,771.7139 778.9804,801.4134 819.0604,823.0534 " fill="none" id="validationEngine-to-commonValidation" style="stroke:#000000;stroke-width:1.0;"/><polygon fill="#000000" points="824.34,825.9039,818.321,818.1083,819.9403,823.5285,814.5202,825.1478,824.34,825.9039" style="stroke:#000000;stroke-width:1.0;"/></g><!--link tradeProcessor to tradeModel--><g id="link_tradeProcessor_tradeModel"><path d="M313.24,622.7539 C444.88,627.2739 701.99,638.5839 738,658.9139 C792.66,689.7739 764.5,744.5939 820,773.9139 C857.93,793.9539 1165.81,766.9139 1206,781.9139 C1229.86,790.8139 1247.5563,805.7446 1262.3763,821.2646 " fill="none" id="tradeProcessor-to-tradeModel" style="stroke:#000000;stroke-width:1.0;"/><polygon fill="#000000" points="1266.52,825.6039,1263.1974,816.3324,1263.067,821.9878,1257.4116,821.8573,1266.52,825.6039" style="stroke:#000000;stroke-width:1.0;"/></g><!--link restController to tradeModel--><g id="link_restController_tradeModel"><path d="M352.28,212.5639 C507.6,254.6539 846,352.3539 846,404.4139 C846,404.4139 846,404.4139 846,620.4139 C846,690.4839 827.63,729.7139 882,773.9139 C895.97,785.2739 1189.14,775.5839 1206,781.9139 C1229.84,790.8639 1247.545,805.7859 1262.365,821.2959 " fill="none" id="restController-to-tradeModel" style="stroke:#000000;stroke-width:1.0;"/><polygon fill="#000000" points="1266.51,825.6339,1263.1845,816.3635,1263.0558,822.0189,1257.4004,821.8902,1266.51,825.6339" style="stroke:#000000;stroke-width:1.0;"/></g><!--SRC=[RPDDRzmW48Rl_8hfNd9QgMqkKG-LjfizL6saJHsrXoe7WYTUkXWSm55MLVzxCHY3iNtolFCCp1Vlx0bRX4vGBedbLY0yQ5eZL5PfX2tiLTifYTB2JhCJjyXihv6GApYyMTII2gWknc9h21Eghs4pwNl1NPpP03N0mdzalj7dCtL0xoAr1yw34jsxNnNSNYHjrUqNxwszKJz5uAYCRJHMzz-zkmkc8QIZx4mRX4seugjiq5Yk95IeNpd33VmbuBxVFmxLWojEMgs4GFqu7EDEi4aANCZqg5NTin7pgKObKFSzwakymqClWp8AvDyYiJtjXZukqXeRewJfs_owg0GgdE5IO6YC2fWTj4aANEpXE8h7rCeWh2JsamfUqzMMPQw3RBWCXRvEQX03wnBvurObEyR3tIJ7rdZwyDRneN_iX7KVfu5UdBIr9ggsTHVSgG6OqWm-9w98ZV7ceeoTbChwNrFKadb2r7XN2lO1pAj9798SLnsssy_bHirDJyoNQMObFmcE94phCBEylzY3kUc9sGRaHkPrJsqjT37iKl3KSieB9N3JiyrVoznLR44HjthzOYWhXMHBiJAKp4lS7Y1etfmigETYeF09ZafRk7b_yw40YpiJ-B405oKaz9hy1m00]--></g></svg>